inDegrees=yes
name=ik_XSensDOTOutput
DataType=double
version=3
OpenSimVersion=4.4-2022-07-23-0e9fedc
endheader
time	pelvis_tilt	pelvis_list	pelvis_rotation	pelvis_tx	pelvis_ty	pelvis_tz	hip_flexion_r	hip_adduction_r	hip_rotation_r	knee_angle_r	knee_angle_r_beta	ankle_angle_r	subtalar_angle_r	mtp_angle_r	hip_flexion_l	hip_adduction_l	hip_rotation_l	knee_angle_l	knee_angle_l_beta	ankle_angle_l	subtalar_angle_l	mtp_angle_l	lumbar_extension	lumbar_bending	lumbar_rotation	arm_flex_r	arm_add_r	arm_rot_r	elbow_flex_r	pro_sup_r	wrist_flex_r	wrist_dev_r	arm_flex_l	arm_add_l	arm_rot_l	elbow_flex_l	pro_sup_l	wrist_flex_l	wrist_dev_l
7.666666666666667	15.69901408586326	-1.127708254873693	-39.94986279580203	0	0.9399999999999999	0	43.95400768924385	-10.01779620551652	0	59.52056147981748	1.038829770458523	-5.003115933728486	0	0	43.95400768924385	-10.01779620551652	0	59.52056147981748	1.038829770458523	-5.003115933728486	0	0	10.64344584389418	5.550231966952177	-39.53343735758	-17.55256196748562	-34.7148768085085	-17.00458571050609	41.9584687924991	0.01499305097950596	0	0	0	-12.57565558200955	0	75.50821936925271	45.18692938002332	0	0
7.683333333333334	15.75544211258092	-1.212923990861858	-39.93199777258716	0	0.9399999999999999	0	43.95411840319675	-10.01778972576908	0	59.52060182873736	1.038830474680025	-5.003114457891078	0	0	43.95411840319675	-10.01778972576908	0	59.52060182873736	1.038830474680025	-5.003114457891078	0	0	10.74342212893611	5.520959178044261	-39.4936977803633	-18.10228895703743	-34.61842278269408	-17.00155125137406	40.85055626955058	0.01562661691853808	0	0	0	-12.57578819076426	0	75.50816560290313	45.18687539802308	0	0
7.7	15.80336224798723	-1.25194000916261	-39.9110776902032	0	0.9399999999999999	0	43.95423112301349	-10.01778311778983	0	59.52064284666619	1.038831190577935	-5.003112952472755	0	0	43.95423112301349	-10.01778311778983	0	59.52064284666619	1.038831190577935	-5.003112952472755	0	0	10.80703049662755	5.521674391417249	-39.46038942804487	-18.61811486875643	-34.58729896045365	-17.03671383043648	39.8345696634613	0.01670289780935548	0	0	0	-12.57592306108874	0	75.50811086246397	45.18682036182172	0	0
7.716666666666667	15.8447731684524	-1.282570982338167	-39.88120169210482	0	0.9399999999999999	0	43.95443734230854	-10.01777092867969	0	59.52071737138935	1.038832491279729	-5.003110171473613	0	0	43.95443734230854	-10.01777092867969	0	59.52071737138935	1.038832491279729	-5.003110171473613	0	0	10.86043728160639	5.525749357152942	-39.4197012528069	-19.05224127878666	-34.55249629858582	-17.0539458165294	38.71403682716911	0.01796725803758584	0	0	0	-12.5761686004438	0	75.50801071582609	45.18671898331785	0	0
7.733333333333333	15.86128937307978	-1.332619587577669	-39.86030717599559	0	0.9399999999999999	0	43.9546748112846	-10.01775689021511	0	59.52080314615349	1.038833988331778	-5.003106968826829	0	0	43.9546748112846	-10.01775689021511	0	59.52080314615349	1.038833988331778	-5.003106968826829	0	0	10.90693651636419	5.497419327309538	-39.38291763882807	-19.37923653647347	-34.4732764527332	-16.95115858317865	37.52180560076906	0.01929649169620112	0	0	0	-12.5764512660843	0	75.50789539336017	45.18660221970969	0	0
7.75	15.8993932713239	-1.372359741422293	-39.85115528933748	0	0.9399999999999999	0	43.95491129760043	-10.01774291673267	0	59.52088856446385	1.038835479162535	-5.003103781735829	0	0	43.95491129760043	-10.01774291673267	0	59.52088856446385	1.038835479162535	-5.003103781735829	0	0	10.96309627679748	5.487590307160573	-39.36090597235072	-19.70102401561628	-34.46353770909881	-16.88225138209774	36.31825391791701	0.0205324200007849	0	0	0	-12.5767327799942	0	75.50778054809597	45.18648597868648	0	0
7.766666666666667	15.932724994218	-1.428065400372454	-39.84541943994017	0	0.9399999999999999	0	43.9551119225206	-10.01773108442158	0	59.52096111128414	1.038836745343411	-5.003101084311519	0	0	43.9551119225206	-10.01773108442158	0	59.52096111128414	1.038836745343411	-5.003101084311519	0	0	11.02575865272473	5.461795533507281	-39.33881344069731	-20.1659084667173	-34.39562081431118	-16.91317576439937	35.19782550367059	0.02194202305129836	0	0	0	-12.57697181349231	0	75.50768311822172	45.18638751084931	0	0
7.783333333333333	15.96079328617403	-1.473874386171999	-39.82562339591227	0	0.9399999999999999	0	43.95533076428797	-10.01771816702308	0	59.52104016393924	1.038838125072525	-5.003098139398574	0	0	43.95533076428797	-10.01771816702308	0	59.52104016393924	1.038838125072525	-5.003098139398574	0	0	11.07842477135975	5.444429984823739	-39.30477624720994	-20.61397308581578	-34.33847897843285	-16.86083213860998	34.16375954042221	0.02415133947889687	0	0	0	-12.57723237701207	0	75.50757684169076	45.1862800223027	0	0
7.8	15.99100314663237	-1.52077205509413	-39.80030581429773	0	0.9399999999999999	0	43.95557761832488	-10.0177035916943	0	59.52112927742007	1.038839680396173	-5.003094816752122	0	0	43.95557761832488	-10.0177035916943	0	59.52112927742007	1.038839680396173	-5.003094816752122	0	0	11.13355045314154	5.429000767433853	-39.26520908668788	-21.00047099641307	-34.31463562852127	-16.74407950291114	33.07475458580448	0.02744589782022215	0	0	0	-12.57752617824402	0	75.50745696152437	45.18615873631423	0	0
7.816666666666666	16.03249700998313	-1.572791572223127	-39.77853840862257	0	0.9399999999999999	0	43.95582301709025	-10.01768911585162	0	59.52121789386413	1.038841227044894	-5.003091517843317	0	0	43.95582301709025	-10.01768911585162	0	59.52121789386413	1.038841227044894	-5.003091517843317	0	0	11.20044756828791	5.415736445838399	-39.22868330892125	-21.38545704658346	-34.33110977780013	-16.63709139595812	31.95350117425715	0.03232262395536876	0	0	0	-12.57781833737622	0	75.50733778806139	45.18603824985272	0	0
7.833333333333333	16.07789517714656	-1.611725189544988	-39.76404903468507	0	0.9399999999999999	0	43.95628944244488	-10.01766149985421	0	59.52138570747091	1.038844155944862	-5.003085221365612	0	0	43.95628944244488	-10.01766149985421	0	59.52138570747091	1.038844155944862	-5.003085221365612	0	0	11.26228082163349	5.413136596119333	-39.20181995925681	-21.64807928606982	-34.36369154576063	-16.39063575373597	30.75166398244734	0.03924920425141645	0	0	0	-12.57837225094605	0	75.50711127727212	45.18580851776987	0	0
7.85	16.1349284379492	-1.666398851907493	-39.74143530913335	0	0.9399999999999999	0	43.95659413960514	-10.01764352503463	0	59.5214955850149	1.038846073669778	-5.003081126813679	0	0	43.95659413960514	-10.01764352503463	0	59.5214955850149	1.038846073669778	-5.003081126813679	0	0	11.34331168501368	5.407725137995752	-39.16391274265399	-21.97016609770254	-34.29266579806956	-16.21632393806147	29.46759387988671	0.04829221305263242	0	0	0	-12.5787347365168	0	75.50696330664263	45.1856588772204	0	0
7.866666666666666	16.17522213495306	-1.721032904738496	-39.72814941582352	0	0.9399999999999999	0	43.95697200623711	-10.01762121758812	0	59.52163168516212	1.03884844906546	-5.00307604562148	0	0	43.95697200623711	-10.01762121758812	0	59.52163168516212	1.03884844906546	-5.00307604562148	0	0	11.41133511824936	5.389419071478718	-39.13401430669664	-22.19284204625816	-34.14786583902143	-15.91543343115913	28.08368274394656	0.06085410526931687	0	0	0	-12.57918393405721	0	75.50677980263727	45.18547317269625	0	0
7.883333333333334	16.24455399726813	-1.786365838918008	-39.71202976627122	0	0.9399999999999999	0	43.95743890064497	-10.01759365577333	0	59.52179972738328	1.038851381955501	-5.003069769241755	0	0	43.95743890064497	-10.01759365577333	0	59.52179972738328	1.038851381955501	-5.003069769241755	0	0	11.50861244293131	5.380741858659952	-39.10080994931175	-22.44891463707112	-34.04877009318654	-15.66609420606534	26.6473714573905	0.07968882838223688	0	0	0	-12.57973875219615	0	75.50655306394003	45.18524369562616	0	0
7.9	16.31132163385811	-1.868929761734736	-39.67809872448264	0	0.9399999999999999	0	43.95772747949498	-10.01757669388915	0	59.52190388328677	1.038853199818953	-5.003065910737504	0	0	43.95772747949498	-10.01757669388915	0	59.52190388328677	1.038853199818953	-5.003065910737504	0	0	11.61507533774238	5.360898550229678	-39.04641640001125	-22.80341361884389	-33.85583634604728	-15.61486022876506	25.16082231737454	0.1196102330963963	0	0	0	-12.58008240462826	0	75.50641292077678	45.18510234942875	0	0
7.916666666666667	16.36876023855493	-1.925276284516397	-39.65630951881525	0	0.9399999999999999	0	43.9581718709164	-10.01755050891381	0	59.52206385782895	1.038855991901433	-5.003059952514738	0	0	43.9581718709164	-10.01755050891381	0	59.52206385782895	1.038855991901433	-5.003059952514738	0	0	11.69708548649866	5.351283441308675	-39.00950093980617	-22.90855501658869	-33.60429110914537	-15.28274153556922	23.66499471332416	0.2006173045779001	0	0	0	-12.58061068166767	0	75.50619711017065	45.18488421911205	0	0
7.933333333333334	16.42248186084312	-1.986018159903486	-39.6364944711043	0	0.9399999999999999	0	43.95863580770668	-10.01752318388032	0	59.5222307928612	1.038858905467383	-5.003053737000607	0	0	43.95863580770668	-10.01752318388032	0	59.5222307928612	1.038858905467383	-5.003053737000607	0	0	11.77959425391636	5.339702673802165	-38.97331870444991	-23.09642821353814	-33.36398671174737	-15.00406981225339	22.33913023826478	0.4137573713639743	0	0	0	-12.58116209737998	0	75.50597180770619	45.18465654525738	0	0
7.95	16.49085619412719	-2.056215621211709	-39.6180122083997	0	0.9399999999999999	0	43.95885330546404	-10.01751042743419	0	59.5223092747801	1.038860275235271	-5.003050838221024	0	0	43.95885330546404	-10.01751042743419	0	59.5223092747801	1.038860275235271	-5.003050838221024	0	0	11.87932316443756	5.333221847858858	-38.93869218069229	-23.50558594245533	-33.19257705682846	-15.06284178432293	21.2497639891629	1.015781570288968	0	0	0	-12.58142115385579	0	75.50586618377041	45.18455016927068	0	0
7.966666666666667	16.56210664467195	-2.124090663885085	-39.61204164653711	0	0.9399999999999999	0	43.95905283511308	-10.01749872676671	0	59.52238124553069	1.038861531361834	-5.003048179877585	0	0	43.95905283511308	-10.01749872676671	0	59.52238124553069	1.038861531361834	-5.003048179877585	0	0	11.97892482219558	5.327931435544767	-38.91806805271781	-23.83096101505983	-33.04224247562395	-15.23445746717861	20.09010849717952	1.922202425844875	0	0	0	-12.581658762152	0	75.50576928573119	45.18445258639459	0	0
7.983333333333333	16.65782620202236	-2.198772980145633	-39.61285972686856	0	0.9399999999999999	0	43.95929813275319	-10.01748434070214	0	59.52246968283123	1.03886307488391	-5.003044911773221	0	0	43.95929813275319	-10.01748434070214	0	59.52246968283123	1.03886307488391	-5.003044911773221	0	0	12.10141615676238	5.330075857540244	-38.90377583045737	-24.04231546631603	-32.88021989286237	-15.45382223224622	18.75597550963775	2.940630267901726	0	0	0	-12.58195079477962	0	75.50565016128603	45.18433260205382	0	0
8	16.73740079307476	-2.262614939076661	-39.59757664970864	0	0.9399999999999999	0	43.95952396179541	-10.017471126245	0	59.52255121756294	1.038864497933433	-5.003041911503902	0	0	43.95952396179541	-10.017471126245	0	59.52255121756294	1.038864497933433	-5.003041911503902	0	0	12.20492067040241	5.332686874725346	-38.87378138818946	-24.11591767899762	-32.65833143754823	-15.57774107978073	17.18819115114558	3.72436822868341	0	0	0	-12.58221994427035	0	75.50554049136164	45.18422233865177	0	0
